Coordinates
version=1
nRows=16
nColumns=36
inDegrees=yes

Units are S.I. units (second, meters, Newtons, ...)
If the header above contains a line with 'inDegrees', this indicates whether rotational values are in degrees (yes) or radians (no).

endheader
time	pelvis_tilt	pelvis_list	pelvis_rotation	pelvis_tx	pelvis_ty	pelvis_tz	hip_flexion_r	hip_adduction_r	hip_rotation_r	knee_angle_r	knee_angle_r_beta	ankle_angle_r	subtalar_angle_r	mtp_angle_r	hip_flexion_l	hip_adduction_l	hip_rotation_l	knee_angle_l	knee_angle_l_beta	ankle_angle_l	subtalar_angle_l	mtp_angle_l	lumbar_extension	lumbar_bending	lumbar_rotation	arm_flex_r	arm_add_r	arm_rot_r	elbow_flex_r	pro_sup_r	arm_flex_l	arm_add_l	arm_rot_l	elbow_flex_l	pro_sup_l
      1.83333330	     -8.20545835	      0.26926177	      0.84597336	      1.25104711	      0.98397106	     -0.05630401	     26.86303029	     -3.30781035	      3.73672414	     15.32202822	      0.26741984	     10.18798605	      3.27980523	     -7.49999987	     10.60223718	      7.20509686	     -6.77307868	     10.57835277	      0.18462709	     19.76795246	      5.70461161	     -7.49999987	      3.18741282	     -2.80570697	      0.25554668	     42.59781856	      5.21456583	     70.87843977	    126.45576999	     94.16292853	     52.24245968	    -10.12992350	     59.71595723	    133.73167199	     96.47424730
      1.85000000	     -8.56660216	      0.32184128	      1.01788380	      1.25137919	      0.98292628	     -0.05649637	     27.75059198	     -3.37679939	      3.68595091	     15.17044029	      0.26477413	      9.95127397	      3.31769046	     -7.49999987	     11.04431090	      7.33151522	     -6.29334353	     10.81293676	      0.18872135	     19.97916822	      5.46013360	     -7.49999987	      3.81255680	     -2.94408944	      0.08377148	     42.46146192	      5.20756714	     70.54475711	    125.80422364	     92.88125598	     52.32621314	    -10.11081585	     59.42914044	    133.61497817	     95.27915796
      1.86666670	     -8.62412444	      0.29527843	      1.25240437	      1.25161579	      0.98316833	     -0.05671943	     28.29143167	     -3.40118443	      3.48371361	     14.97236575	      0.26131708	      9.75641234	      3.46265423	     -7.49999987	     11.25039128	      7.37520257	     -6.12747969	     11.26329202	      0.19658153	     20.37460208	      5.38699233	     -7.49999987	      3.81014276	     -3.01821770	     -0.28429947	     42.30227095	      5.23553934	     70.13922275	    125.50844223	     91.60473725	     52.54633803	    -10.42814161	     59.28680298	    133.79968161	     94.12248078
      1.88333330	     -8.56251501	      0.26561357	      1.53069679	      1.25183827	      0.98296493	     -0.05696053	     28.71895354	     -3.42324833	      3.42144349	     14.83979961	      0.25900336	      9.83304549	      3.62039426	     -7.49999987	     11.41668611	      7.37232925	     -6.12203753	     11.91575700	      0.20796919	     20.82714163	      5.57505718	     -7.49999987	      3.59847991	     -3.05363014	     -0.55719067	     42.36528619	      5.18355088	     69.93402770	    125.04787887	     90.97209791	     52.84594250	    -10.68107627	     59.34733777	    133.88089401	     93.64060344
      1.90000000	     -8.58949299	      0.24114007	      1.80409296	      1.25212363	      0.98374603	     -0.05700908	     29.33899656	     -3.43924024	      3.46999313	     14.74646214	      0.25737432	      9.91820199	      3.68384785	     -7.49999987	     11.66137951	      7.41372188	     -6.00526031	     12.54153946	      0.21889116	     21.23028611	      5.39417624	     -7.49999987	      3.54827558	     -3.10157065	     -0.71803606	     42.17300559	      5.19540553	     69.71701266	    124.78784003	     91.07603344	     52.95178519	    -10.68909046	     59.29868197	    133.85813631	     93.78690808
      1.91666670	     -8.79684500	      0.19299859	      1.97519948	      1.25288252	      0.98670352	     -0.05700407	     30.20419263	     -3.42113276	      3.44096510	     14.68080450	      0.25622838	     10.12546464	      3.93359797	     -7.49999987	     12.16734423	      7.42733150	     -5.86399085	     13.29570429	      0.23205382	     21.57216911	      5.09204569	     -7.49999987	      3.70654161	     -3.07280598	     -0.85657442	     41.54414110	      5.09168822	     69.97628242	    124.81344138	     91.27337043	     52.53314824	    -10.93773175	     59.51036727	    133.85189961	     94.03248918
      1.93333330	     -9.00702311	      0.17461113	      2.15250594	      1.25276865	      0.98355583	     -0.05728060	     31.13796984	     -3.43163570	      3.31267628	     14.54265677	      0.25381724	     10.37973885	      4.22834327	     -7.49999987	     12.62945897	      7.48470893	     -5.77349890	     14.00706331	      0.24446937	     21.91977730	      4.74138456	     -7.49999987	      4.03367572	     -3.10679794	     -0.96682021	     41.27563505	      5.12264200	     69.83396179	    124.48349767	     91.56748845	     52.49667975	    -10.76976039	     59.74975971	    134.02493616	     94.40282535
      1.95000000	     -9.01767591	      0.11846190	      2.15719243	      1.24861036	      0.98656404	     -0.05437966	     31.93348228	     -3.34989430	      3.27028518	     14.22521846	      0.24827690	     10.49736999	      4.51304490	     -7.49999987	     13.14779839	      7.39785317	     -5.80924970	     15.08416902	      0.26326841	     22.26741873	      4.20685281	     -7.49999987	      3.76456790	     -3.11059001	     -0.82946563	     41.51335158	      5.18558795	     69.89695993	    123.68400960	     91.62655281	     52.95246347	    -10.57139859	     60.16398796	    134.22529459	     94.50393916
      1.96666670	     -9.33648715	      0.08295825	      2.33149587	      1.24872062	      0.98266859	     -0.05450726	     33.06665449	     -3.40372306	      3.03680033	     13.95114813	      0.24349347	     10.73447588	      5.03397880	     -7.49999987	     14.10234301	      7.38336394	     -5.69827292	     16.37496964	      0.28579714	     22.36074413	      3.30868271	     -7.49999987	      3.92062989	     -3.26222089	     -1.05894381	     42.01805515	      5.72999962	     69.73840557	    122.66317291	     91.80256877	     53.60722960	    -10.85863534	     61.10054689	    134.37843728	     94.84006730
      1.98333330	     -9.21530531	      0.01659839	      2.28141472	      1.24891455	      0.98272981	     -0.05435391	     33.63494731	     -3.25655738	      3.08765083	     13.58152317	      0.23704230	     10.72458923	      5.35542831	     -7.49999987	     14.54027234	      7.24772724	     -5.97473479	     17.55542103	      0.30639990	     22.47431899	      2.64312637	     -7.49999987	      3.60511985	     -3.41340009	     -1.06736718	     42.07138854	      5.98541862	     69.49365160	    122.20226126	     91.81004453	     53.91001223	    -11.14339512	     61.02928720	    134.15662700	     94.88609980
      2.00000000	     -9.46693014	     -0.08011915	      2.43785214	      1.24966344	      0.98556459	     -0.05420701	     34.51306437	     -3.23487078	      2.52126806	     13.18897102	      0.23019097	     10.66858145	      6.04206917	     -7.49999987	     15.41362447	      7.22387039	     -5.75160117	     18.80559785	      0.32821960	     22.44078938	      1.30447742	     -7.49999987	      3.66939214	     -3.48832193	     -1.57369963	     41.99360020	      6.19221766	     69.90670726	    121.77912230	     91.88930963	     54.00989020	    -11.91754214	     61.50811695	    134.21091135	     95.04944259
      2.01666670	     -9.45747712	     -0.12670528	      2.54157323	      1.24461459	      0.98207240	     -0.05824229	     35.20440121	     -3.20984207	      2.16559572	     12.83570149	      0.22402525	     10.53118737	      6.62847628	     -7.49999987	     16.10792380	      7.23197180	     -5.83596761	     20.12084575	      0.35117501	     22.53442766	      0.42607339	     -7.49999987	      3.31912681	     -3.56394843	     -2.07039847	     42.11461908	      5.54790784	     70.50707956	    122.56263311	     91.88109997	     54.43692270	    -12.15879229	     61.32751647	    133.98456029	     95.02046936
      2.03333330	     -9.32906886	     -0.20552594	      2.60130346	      1.24441514	      0.97799355	     -0.05833556	     35.87493999	     -3.11586054	      1.81933776	     12.68313767	      0.22136251	     10.44590134	      7.15637229	     -7.49999987	     16.64227531	      7.20660237	     -5.96024479	     21.38014992	      0.37315401	     22.75206094	     -0.46632152	     -7.49999987	      2.99566413	     -3.57348136	     -2.22122350	     42.57574983	      5.51483486	     69.76686661	    121.86255978	     91.86978768	     55.33150397	    -11.87032023	     61.34319094	    133.98419326	     95.07830437
      2.05000000	     -9.27536612	     -0.29935789	      2.67464681	      1.24439378	      0.97762120	     -0.05850720	     36.67736636	     -3.06125382	      1.29137229	     12.62235589	      0.22030167	     10.48468204	      7.99253668	     -7.49999987	     17.28376851	      7.23620803	     -5.88564972	     22.70737409	      0.39631844	     22.87962303	     -1.73558549	     -7.49999987	      2.76992494	     -3.55817576	     -2.32104781	     42.53616889	      5.24861012	     69.27224417	    121.26285304	     91.87783083	     56.10412539	    -11.50294618	     62.10104164	    133.99050761	     95.20980691
      2.06666670	     -9.15118273	     -0.45873854	      2.71855616	      1.24362595	      0.96828284	     -0.05863259	     37.69230761	     -2.87034355	      1.11240321	     12.78839237	      0.22319955	     10.61306414	      8.38583217	     -7.49999987	     18.05988297	      7.14385607	     -5.93050316	     24.32862905	      0.42461468	     23.36174222	     -2.76109362	     -7.49999987	      2.57509116	     -3.51221428	     -2.61290773	     42.95661963	      5.23415498	     69.20010350	    122.58052480	     90.25086395	     57.22732751	    -11.23208270	     62.07845780	    133.80994299	     93.40226886
      2.08333330	     -8.69892864	     -0.67718765	      2.51321902	      1.24235333	      0.96226139	     -0.05910190	     38.62632105	     -2.52792469	      1.32131695	     13.43821661	      0.23454113	     10.73856168	      8.41397845	     -7.49999987	     18.73444839	      6.90725690	     -6.14081636	     26.31609361	      0.45930248	     24.17789251	     -3.92668687	     -7.49999987	      2.02203041	     -3.19352046	     -2.59354644	     43.72096767	      5.48972040	     68.84184823	    122.68335071	     90.11535321	     58.24246502	    -11.01901882	     61.73649513	    133.62266663	     93.27026346
